<svg xmlns="http://www.w3.org/2000/svg" viewBox="0 0 64 64">
  <defs>
    <radialGradient id="ocean" cx="40%" cy="35%" r="55%">
      <stop offset="0%" stop-color="#5bb8f5"/>
      <stop offset="100%" stop-color="#1a5276"/>
    </radialGradient>
    <radialGradient id="shine" cx="30%" cy="25%" r="50%">
      <stop offset="0%" stop-color="rgba(255,255,255,0.3)"/>
      <stop offset="100%" stop-color="rgba(255,255,255,0)"/>
    </radialGradient>
  </defs>
  <!-- Ocean -->
  <circle cx="32" cy="32" r="30" fill="url(#ocean)"/>
  <!-- North America -->
  <path d="M14 16 Q16 14 19 13 Q21 12 22 14 L23 17 Q22 19 20 20 L17 22 Q15 24 14 27 L13 30 Q12 28 12 25 Q12 20 14 16Z" fill="#4caf50" opacity="0.9"/>
  <!-- South America -->
  <path d="M20 33 Q22 31 23 33 L24 37 Q25 40 24 43 L22 47 Q21 49 19 48 L18 45 Q17 42 17 39 Q17 36 20 33Z" fill="#43a047" opacity="0.9"/>
  <!-- Europe -->
  <path d="M32 12 Q34 11 36 12 L37 14 Q36 16 34 17 L32 18 Q30 17 31 15Z" fill="#4caf50" opacity="0.9"/>
  <!-- Africa -->
  <path d="M33 20 Q35 19 37 20 L39 23 Q40 27 39 31 L38 35 Q37 39 35 41 L33 42 Q31 41 31 38 L31 34 Q31 30 32 26 Q32 22 33 20Z" fill="#43a047" opacity="0.9"/>
  <!-- Asia -->
  <path d="M39 12 Q42 11 45 12 Q48 13 50 15 L51 18 Q52 21 50 23 L47 24 Q44 25 42 23 L40 20 Q38 17 38 14Z" fill="#4caf50" opacity="0.9"/>
  <!-- Australia -->
  <path d="M46 36 Q48 35 50 36 L51 38 Q51 40 49 41 L47 41 Q45 40 45 38Z" fill="#43a047" opacity="0.9"/>
  <!-- Atmosphere shine -->
  <circle cx="32" cy="32" r="30" fill="url(#shine)"/>
</svg>
